# xmcd
#
# Track frame offsets: 
#        150
#        18707
#        41577
#        62159
#        76719
#        93349
#        113031
#        129773
#        145690
#        163385
#
# Disc length: 2481 seconds
#
# Revision: 3
# Processed by: cddbd v1.5.2PL0 Copyright (c) Steve Scherf et al.
# Submitted via: ExactAudioCopy v1.0b1
#
DISCID=7b09af0a
DTITLE=J. Geils Band - Ladies Invited
DYEAR=1973
DGENRE=Rock
TTITLE0=Did You No Wrong
TTITLE1=I Can't Go On
TTITLE2=Lay Your Good Thing Down
TTITLE3=That's Why I'm Thinking Of You
TTITLE4=No Doubt About It
TTITLE5=The Lady Makes Demands
TTITLE6=My Baby Don't Love Me
TTITLE7=Diddyboppin'
TTITLE8=Take A Chance (On Romance)
TTITLE9=Chimes
EXTD=
EXTT0=
EXTT1=
EXTT2=
EXTT3=
EXTT4=
EXTT5=
EXTT6=
EXTT7=
EXTT8=
EXTT9=
PLAYORDER=
